<svg width="100" height="100" viewBox="0 0 100 100" fill="none" xmlns="http://www.w3.org/2000/svg">
<path d="M73.8585 54.25L58.3335 66.6667H37.5002V62.5H54.4377C54.8145 62.4998 55.1842 62.3974 55.5075 62.2037C55.8307 62.01 56.0954 61.7322 56.2733 61.4C56.4511 61.0678 56.5356 60.6935 56.5175 60.3171C56.4995 59.9407 56.3798 59.5762 56.171 59.2625L52.471 53.7125C51.712 52.57 50.682 51.6332 49.473 50.9854C48.264 50.3376 46.9135 49.9991 45.5418 50H12.5002C11.3951 50 10.3353 50.439 9.55388 51.2204C8.77248 52.0018 8.3335 53.0616 8.3335 54.1667V79.1667C8.3335 81.3768 9.21147 83.4964 10.7743 85.0592C12.3371 86.622 14.4567 87.5 16.6668 87.5H56.8293C58.611 87.5004 60.3722 87.1199 61.9949 86.3841C63.6175 85.6482 65.0641 84.5739 66.2377 83.2333L91.6668 54.1667L85.6168 52.15C83.6375 51.4902 81.5243 51.3367 79.4704 51.7035C77.4165 52.0704 75.4871 52.9458 73.8585 54.25V54.25ZM64.1793 50C67.4945 50 70.674 48.683 73.0182 46.3388C75.3624 43.9946 76.6793 40.8152 76.6793 37.5C76.6793 26.2167 64.1793 12.5 64.1793 12.5C64.1793 12.5 51.6793 26.1292 51.6793 37.5C51.6793 40.8152 52.9963 43.9946 55.3405 46.3388C57.6847 48.683 60.8641 50 64.1793 50V50Z" fill="#D9230F"/>
</svg>
